erDiagram
  %% Auto-generated from db.sqlite3
  auth_group {
    INTEGER id PK
    VARCHAR(150) name
  }
  auth_group_permissions {
    INTEGER id PK
    INTEGER group_id
    INTEGER permission_id
  }
  auth_permission {
    INTEGER id PK
    INTEGER content_type_id
    VARCHAR(100) codename
    VARCHAR(255) name
  }
  courses_chapter {
    INTEGER chapter_id PK
    VARCHAR(255) title
    DATETIME created_at
    INTEGER course_id
    INTEGER UNSIGNED order_index
  }
  courses_course {
    INTEGER course_id PK
    VARCHAR(255) title
    VARCHAR(50) category
    VARCHAR(10) type
    VARCHAR(50) level
    INTEGER price
    TEXT description
    DATETIME course_time
    DATETIME course_duedate
    VARCHAR(255) discord_url
    DATETIME created_at
    BOOL is_active
    INTEGER UNSIGNED order_index
    VARCHAR(10) price_type
    INTEGER UNSIGNED code
    VARCHAR(100) course_image
  }
  courses_courselike {
    INTEGER id PK
    DATETIME created_at
    INTEGER course_id
    INTEGER user_id
  }
  courses_enrollment {
    INTEGER id PK
    VARCHAR(16) status
    DATETIME enrolled_at
    DATETIME expired_at
    DECIMAL progress
    INTEGER course_id
    INTEGER user_id
  }
  courses_instructor {
    INTEGER instructor_id PK
    VARCHAR(255) name
    INTEGER code
    DATETIME created_at
    VARCHAR(255) affiliation
    INTEGER course_id
    VARCHAR(100) profile_image
    VARCHAR(255) english_name
  }
  courses_video {
    INTEGER video_id PK
    VARCHAR(255) title
    INTEGER duration
    INTEGER chapter_id
    INTEGER course_id
    INTEGER UNSIGNED order_index
    VARCHAR(100) video_file
  }
  django_admin_log {
    INTEGER id PK
    TEXT object_id
    VARCHAR(200) object_repr
    SMALLINT UNSIGNED action_flag
    TEXT change_message
    INTEGER content_type_id
    INTEGER user_id
    DATETIME action_time
  }
  django_content_type {
    INTEGER id PK
    VARCHAR(100) app_label
    VARCHAR(100) model
  }
  django_migrations {
    INTEGER id PK
    VARCHAR(255) app
    VARCHAR(255) name
    DATETIME applied
  }
  django_session {
    VARCHAR(40) session_key PK
    TEXT session_data
    DATETIME expire_date
  }
  token_blacklist_blacklistedtoken {
    INTEGER id PK
    DATETIME blacklisted_at
    BIGINT token_id
  }
  token_blacklist_outstandingtoken {
    INTEGER id PK
    VARCHAR(255) jti
    TEXT token
    DATETIME created_at
    DATETIME expires_at
    INTEGER user_id
  }
  users_user {
    DATETIME last_login
    BOOL is_superuser
    VARCHAR(150) first_name
    VARCHAR(150) last_name
    BOOL is_staff
    DATETIME date_joined
    INTEGER id PK
    VARCHAR(254) email
    VARCHAR(128) password
    VARCHAR(100) name
    VARCHAR(1) gender
    DATE birth_date
    VARCHAR(10) role
    BOOL is_active
    DATETIME created_at
    DATETIME updated_at
    VARCHAR(100) profile_image
  }
  users_user_course {
    INTEGER id PK
    INTEGER user_id
    INTEGER course_id
  }
  users_user_groups {
    INTEGER id PK
    INTEGER user_id
    INTEGER group_id
  }
  users_user_user_permissions {
    INTEGER id PK
    INTEGER user_id
    INTEGER permission_id
  }
  auth_permission ||--|{ auth_group_permissions : permission_id->id
  auth_group ||--|{ auth_group_permissions : group_id->id
  django_content_type ||--|{ auth_permission : content_type_id->id
  courses_course ||--|{ courses_chapter : course_id->course_id
  users_user ||--|{ courses_courselike : user_id->id
  courses_course ||--|{ courses_courselike : course_id->course_id
  users_user ||--|{ courses_enrollment : user_id->id
  courses_course ||--|{ courses_enrollment : course_id->course_id
  courses_course ||--|{ courses_instructor : course_id->course_id
  courses_course ||--|{ courses_video : course_id->course_id
  courses_chapter ||--|{ courses_video : chapter_id->chapter_id
  users_user ||--|{ django_admin_log : user_id->id
  django_content_type ||--o{ django_admin_log : content_type_id->id
  token_blacklist_outstandingtoken ||--|{ token_blacklist_blacklistedtoken : token_id->id
  users_user ||--o{ token_blacklist_outstandingtoken : user_id->id
  courses_course ||--|{ users_user_course : course_id->course_id
  users_user ||--|{ users_user_course : user_id->id
  auth_group ||--|{ users_user_groups : group_id->id
  users_user ||--|{ users_user_groups : user_id->id
  auth_permission ||--|{ users_user_user_permissions : permission_id->id
  users_user ||--|{ users_user_user_permissions : user_id->id
